# xmcd
#
# Track frame offsets: 
#        150
#        9478
#        35970
#        40648
#        74400
#        97111
#        125325
#        144927
#        176261
#        178564
#
# Disc length: 2667 seconds
#
# Revision: 0
# Processed by: cddbd v1.5.2PL0 Copyright (c) Steve Scherf et al.
# Submitted via: ExactAudioCopyFreeDBPlugin 1.0
#
DISCID=820a690a
DTITLE=Kristoffer Nyströms Orkester - Overlook Hotel
DYEAR=2012
DGENRE=Industrial
TTITLE0=The Night Corridor
TTITLE1=Cleaning Still Houses
TTITLE2=The Tale and the Variation
TTITLE3=Industrial Pale Ale
TTITLE4=Becoming the Green
TTITLE5=Vulgalina Fever
TTITLE6=Helvetesfallet
TTITLE7=It's a Test
TTITLE8=Ned i det bunnloøse
TTITLE9=Astronaut 47
EXTD=
EXTT0=
EXTT1=
EXTT2=
EXTT3=
EXTT4=
EXTT5=
EXTT6=
EXTT7=
EXTT8=
EXTT9=
PLAYORDER=
